<?xml version="1.0" encoding="UTF-8" standalone="no"?><!DOCTYPE svg PUBLIC "-//W3C//DTD SVG 1.1//EN" "http://www.w3.org/Graphics/SVG/1.1/DTD/svg11.dtd"><svg width="100%" height="100%" viewBox="0 0 5625 5625" version="1.1" xmlns="http://www.w3.org/2000/svg" xmlns:xlink="http://www.w3.org/1999/xlink" xml:space="preserve" xmlns:serif="http://www.serif.com/" style="fill-rule:evenodd;clip-rule:evenodd;stroke-linecap:round;stroke-linejoin:round;stroke-miterlimit:1.5;"><rect id="docker-composer" x="0" y="0" width="5623.21" height="5623.21" style="fill:none;"/><g id="Layer1"><path d="M2240.4,4478.32c-230.185,136.143 -483.077,190.759 -733.635,145.447c-224.205,-40.545 -422.138,-156.689 -581.61,-329.8c-8.888,-2.052 -17.61,-4.617 -26.076,-7.711c-66.645,-24.356 -96.281,-73.792 -76.351,-118.646c-3.777,-5.287 -7.529,-10.619 -11.253,-15.991c-73.535,16.584 -157.653,-1.882 -198.065,-46.188c-45.513,-49.9 -18.463,-113.802 60.369,-142.612c-91.028,-0 -164.93,-46.78 -164.93,-104.4c-0,-44.914 44.904,-83.242 107.825,-97.961c-74.619,-217.402 -113.135,-464.05 -107.235,-724.53c-53.224,-142.6 -82.016,-294.58 -82.127,-452.051l-0.078,-109.863l162.887,-0.115c127.533,-477.501 391.02,-866.157 706.82,-1092.71c255.948,-183.615 546.725,-263.336 834.425,-211.308c135.651,24.531 261.685,76.736 375.432,152.51c257.24,77.171 1191.24,358.473 1306.5,408.888c124.489,54.453 601.949,159.948 750.939,143.056c83.373,-9.453 179.795,22.255 269.804,82.533c117.56,78.73 224.995,204.363 275.389,310.053c79.699,167.15 178.738,609.336 63.705,947.411c-121.43,356.878 -293.552,364.146 -402.699,419.786c-76.726,39.113 -1685.68,552.671 -2369.21,786.966c-58.31,19.988 -114.418,40.175 -160.832,57.236Z" style="fill:#936e3b;stroke:#fff;stroke-width:416.67px;"/></g><g id="Layer11" serif:id="Layer1"><path d="M2103.13,1326.04c615.87,111.374 988.595,905.641 831.817,1772.58c-156.778,866.94 -784.07,1480.36 -1399.94,1368.99c-615.87,-111.374 -988.595,-905.641 -831.817,-1772.58c156.778,-866.94 784.069,-1480.36 1399.94,-1368.99Z" style="fill:#936e3b;"/><path d="M2131.37,1169.88c-287.7,-52.028 -578.477,27.693 -834.425,211.308c-357.321,256.34 -647.667,720.21 -749.913,1285.6c-102.245,565.39 7.253,1101.57 252.166,1466.82c175.43,261.626 419.87,438.135 707.571,490.162c287.7,52.028 578.477,-27.692 834.425,-211.307c357.321,-256.34 647.667,-720.21 749.912,-1285.6c102.246,-565.39 -7.252,-1101.57 -252.165,-1466.82c-175.43,-261.626 -419.87,-438.135 -707.571,-490.163Zm-56.479,312.317c205.002,37.073 375.44,168.182 500.444,354.604c205.734,306.819 289.343,758.635 203.454,1233.58c-85.888,474.944 -322.441,868.861 -622.601,1084.19c-182.376,130.836 -387.938,193.949 -592.94,156.876c-205.002,-37.072 -375.44,-168.181 -500.444,-354.603c-205.734,-306.82 -289.344,-758.635 -203.455,-1233.58c85.889,-474.943 322.442,-868.86 622.602,-1084.19c182.376,-130.836 387.938,-193.948 592.94,-156.876Z" style="fill:#553d1c;"/><g><path d="M1143.4,3081.11c149.63,113.937 176.32,330.925 59.564,484.256c-116.755,153.331 -333.026,185.314 -482.656,71.377c-149.63,-113.937 -176.32,-330.925 -59.564,-484.256c116.755,-153.331 333.026,-185.314 482.656,-71.377Z" style="fill:#9c2c1e;"/><path d="M699.122,3109.65c4.878,-0.887 7.794,-1.41 7.794,-1.41l23.501,58.091l-95.604,60.8c-0,0 -95.871,252.961 91.999,376.786l63.806,39.648l-49.004,8.136c-7.242,-4.677 -14.344,-9.66 -21.302,-14.958c-149.63,-113.937 -176.32,-330.925 -59.564,-484.256c11.827,-15.532 24.676,-29.82 38.374,-42.837Z" style="fill:#fff;fill-opacity:0.8;"/><path d="M901.211,3393.87l-78.221,232.205c0,0 -54.669,-4.416 -92.668,-39.417c-42.967,-39.578 -46.023,-78.829 -46.023,-78.829l216.912,-113.959Z" style="fill:#d46557;"/><path d="M906.521,3365.41l-233.995,72.688c-0,0 -28.458,-46.887 -22.363,-98.188c6.891,-58.01 36.906,-83.487 36.906,-83.487l219.452,108.987Z" style="fill:#d46557;"/><path d="M911.942,3336.36l-199.84,-141.779c0,-0 19.974,-51.082 64.435,-77.391c50.276,-29.749 88.744,-21.371 88.744,-21.371l46.661,240.541Z" style="fill:#d46557;"/><path d="M933.634,3349.41l65.305,-236.162c0,-0 54.831,1.396 94.7,34.25c45.083,37.151 50.298,76.173 50.298,76.173l-210.303,125.739Z" style="fill:#d46557;"/><path d="M925.461,3393.21l146.998,196.033c-0,0 -34.619,42.543 -84.991,54.017c-56.959,12.975 -91.03,-6.75 -91.03,-6.75l29.023,-243.3Z" style="fill:#d46557;"/><path d="M941.452,3374.56l243.728,-25.185c-0,0 18.667,51.574 2.589,100.67c-18.181,55.517 -52.625,74.584 -52.625,74.584l-193.692,-150.069Z" style="fill:#d46557;"/></g><ellipse cx="908.634" cy="3402.42" rx="217.123" ry="246.876" style="fill:#5f2b24;fill-opacity:0.31;"/><path d="M1124.38,3468.8c0,-57.62 73.903,-104.4 164.931,-104.4c91.027,0 164.93,46.78 164.93,104.4c45.514,-49.901 146.467,-67.023 225.3,-38.213c78.832,28.809 105.882,92.712 60.369,142.612c78.832,-28.81 179.785,-11.687 225.299,38.213c45.514,49.9 18.463,113.802 -60.369,142.612c91.028,-0 164.931,46.78 164.931,104.399c-0,57.62 -73.903,104.4 -164.931,104.4c78.832,28.81 105.883,92.712 60.369,142.612c-45.514,49.9 -146.467,67.023 -225.299,38.213c45.513,49.9 18.463,113.802 -60.369,142.612c-78.833,28.81 -179.786,11.687 -225.3,-38.213c0,57.62 -73.903,104.4 -164.93,104.4c-91.028,-0 -164.931,-46.78 -164.931,-104.4c-45.514,49.9 -146.467,67.023 -225.299,38.213c-78.833,-28.81 -105.883,-92.712 -60.369,-142.612c-78.832,28.81 -179.786,11.687 -225.3,-38.213c-45.513,-49.9 -18.463,-113.802 60.369,-142.612c-91.028,-0 -164.93,-46.78 -164.93,-104.4c-0,-57.619 73.902,-104.399 164.93,-104.399c-78.832,-28.81 -105.882,-92.712 -60.369,-142.612c45.514,-49.9 146.468,-67.023 225.3,-38.213c-45.514,-49.9 -18.464,-113.803 60.369,-142.612c78.832,-28.81 179.785,-11.688 225.299,38.213Z" style="fill:#307c37;"/><path d="M832.62,3705.85c-28.806,-35.585 -32.554,-80.374 -8.363,-99.957c24.191,-19.583 67.218,-6.591 96.024,28.994c-12.851,-40.609 5.417,-72.901 40.77,-72.068c35.353,0.833 74.489,34.479 87.34,75.087c6.547,-34.751 41.936,-45.895 78.978,-24.869c37.043,21.026 61.801,66.311 55.255,101.062c24.19,-19.583 67.217,-6.591 96.023,28.994c28.807,35.585 32.554,80.374 8.363,99.956c35.353,0.833 74.489,34.479 87.34,75.088c12.852,40.608 -5.416,72.901 -40.769,72.068c37.042,21.026 61.8,66.31 55.254,101.061c-6.547,34.752 -41.936,45.895 -78.978,24.869c28.806,35.585 32.553,80.374 8.362,99.957c-24.191,19.583 -67.218,6.591 -96.024,-28.994c12.852,40.609 -5.417,72.901 -40.77,72.068c-35.353,-0.833 -74.488,-34.479 -87.34,-75.087c-6.547,34.751 -41.936,45.895 -78.978,24.869c-37.042,-21.026 -61.801,-66.311 -55.254,-101.062c-24.191,19.583 -67.218,6.591 -96.024,-28.994c-28.806,-35.584 -32.553,-80.373 -8.362,-99.956c-35.353,-0.833 -74.489,-34.479 -87.341,-75.088c-12.851,-40.608 5.417,-72.901 40.77,-72.068c-37.042,-21.026 -61.801,-66.31 -55.254,-101.061c6.547,-34.752 41.935,-45.895 78.978,-24.869Z" style="fill:#2f6e35;fill-opacity:0.66;"/><path d="M1338.76,3605.96c23.749,-23.851 74.959,-11.422 114.287,27.738c39.328,39.16 51.976,90.318 28.227,114.168c40.232,-1.075 90.905,35.268 113.09,81.107c22.184,45.839 7.532,83.928 -32.699,85.003c45.934,21.988 82.493,72.506 81.589,112.742c-0.903,40.235 -38.929,55.05 -84.863,33.062c39.328,39.16 51.976,90.317 28.227,114.168c-23.749,23.851 -74.96,11.422 -114.288,-27.738c22.185,45.839 7.533,83.928 -32.699,85.003c-40.231,1.076 -90.905,-35.267 -113.089,-81.106c-0.904,40.236 -38.929,55.05 -84.863,33.062c-45.934,-21.988 -82.492,-72.506 -81.589,-112.742c-23.749,23.851 -74.96,11.422 -114.288,-27.738c-39.328,-39.16 -51.976,-90.317 -28.227,-114.168c-40.231,1.075 -90.905,-35.267 -113.089,-81.107c-22.185,-45.839 -7.533,-83.927 32.699,-85.003c-45.934,-21.988 -82.493,-72.506 -81.589,-112.742c0.903,-40.235 38.929,-55.05 84.862,-33.062c-39.328,-39.16 -51.976,-90.317 -28.226,-114.168c23.749,-23.851 74.959,-11.422 114.287,27.738c-22.184,-45.839 -7.532,-83.927 32.699,-85.003c40.232,-1.075 90.905,35.267 113.09,81.106c0.903,-40.235 38.929,-55.05 84.863,-33.062c45.933,21.988 82.492,72.506 81.589,112.742Z" style="fill:#45ae4e;"/><path d="M922.803,3697.1c0,0 78.993,60.2 108.59,30.492" style="fill:#458e4b;"/><path d="M1249.42,3838.2c-0,-0 -110.115,76.511 -77.675,147.928" style="fill:#458e4b;"/><path d="M1264.8,3805.25c0,0 17.353,75.552 -217.717,64.861" style="fill:#458e4b;"/><path d="M1023.25,3332.55c-35.549,-51.844 -42.303,-109.094 -15.073,-127.764c27.229,-18.671 78.197,8.262 113.746,60.106c-17.171,-54.234 2.464,-90.347 43.82,-80.594c41.356,9.753 88.872,61.702 106.043,115.936c5.808,-42.092 46.57,-47.392 90.971,-11.829c44.401,35.563 75.734,98.609 69.927,140.701c27.23,-18.671 78.198,8.262 113.746,60.106c35.549,51.845 42.303,109.094 15.073,127.765c41.356,9.753 88.873,61.702 106.044,115.936c17.171,54.234 -2.464,90.347 -43.82,80.594c44.401,35.564 75.734,98.609 69.927,140.701c-5.807,42.092 -46.57,47.392 -90.971,11.829c35.549,51.844 42.303,109.094 15.073,127.764c-27.23,18.671 -78.198,-8.262 -113.746,-60.106c17.171,54.234 -2.464,90.347 -43.82,80.594c-41.356,-9.753 -88.873,-61.702 -106.044,-115.936c-5.807,42.092 -46.57,47.392 -90.971,11.829c-44.4,-35.563 -75.734,-98.609 -69.926,-140.701c-27.23,18.671 -78.198,-8.262 -113.747,-60.106c-35.548,-51.845 -42.302,-109.094 -15.072,-127.765c-41.356,-9.753 -88.873,-61.702 -106.044,-115.936c-17.171,-54.234 2.464,-90.347 43.82,-80.594c-44.401,-35.563 -75.734,-98.609 -69.927,-140.701c5.807,-42.092 46.57,-47.392 90.971,-11.829Z" style="fill:#2c7c32;fill-opacity:0.39;"/><path d="M881.298,2283.09c-15.346,-47.163 -7.984,-91.902 16.43,-99.846c24.414,-7.943 56.694,23.897 72.039,71.06c-1.082,-44.816 21.433,-67.641 50.249,-50.939c28.816,16.702 53.09,66.647 54.173,111.463c13.47,-30.461 45.106,-25.256 70.603,11.616c25.496,36.873 35.26,91.539 21.79,121.999c24.414,-7.943 56.693,23.898 72.039,71.06c15.346,47.163 7.984,91.902 -16.43,99.846c28.816,16.702 53.089,66.647 54.172,111.463c1.083,44.816 -21.433,67.641 -50.248,50.939c25.496,36.872 35.26,91.538 21.79,121.999c-13.47,30.461 -45.106,25.255 -70.603,-11.617c15.346,47.163 7.984,91.902 -16.43,99.846c-24.414,7.944 -56.694,-23.897 -72.039,-71.06c1.082,44.816 -21.433,67.641 -50.249,50.939c-28.816,-16.702 -53.09,-66.647 -54.173,-111.463c-13.47,30.461 -45.106,25.256 -70.602,-11.616c-25.497,-36.873 -35.261,-91.539 -21.791,-121.999c-24.414,7.943 -56.693,-23.897 -72.039,-71.06c-15.346,-47.163 -7.983,-91.902 16.43,-99.846c-28.815,-16.702 -53.089,-66.647 -54.172,-111.463c-1.083,-44.816 21.433,-67.641 50.248,-50.939c-25.496,-36.872 -35.26,-91.538 -21.79,-121.999c13.47,-30.46 45.106,-25.255 70.603,11.617Z" style="fill:#307c37;"/><path d="M1321.24,4207.51c-0,-0 -80.961,3.071 -124.785,71.094" style="fill:#2a6b30;"/><path d="M947.134,2499.05c-0,-0 47.97,-45.816 -0.337,-156.649" style="fill:#2a6b30;"/><path d="M960.623,2501.23c-0,-0 -131.937,-86.121 -96.892,-158.851" style="fill:#2a6b30;"/><path d="M1318.65,1867.77c-30.43,-39.165 -1.879,-112.34 63.718,-163.308c65.597,-50.967 143.559,-60.55 173.989,-21.386c6.446,-59.401 70.153,-127.564 142.176,-152.121c72.024,-24.557 125.265,3.732 118.819,63.133c41.594,-63.722 123.387,-108.608 182.538,-100.175c59.152,8.434 73.406,67.014 31.812,130.736c65.598,-50.968 143.559,-60.551 173.989,-21.386c30.43,39.164 1.878,112.339 -63.719,163.307c72.024,-24.557 125.265,3.732 118.819,63.133c-6.445,59.401 -70.152,127.564 -142.176,152.121c59.152,8.434 73.406,67.014 31.812,130.735c-41.594,63.722 -123.386,108.608 -182.538,100.175c30.43,39.164 1.879,112.34 -63.718,163.307c-65.598,50.968 -143.559,60.551 -173.989,21.386c-6.446,59.401 -70.153,127.565 -142.176,152.122c-72.024,24.557 -125.265,-3.732 -118.819,-63.133c-41.594,63.721 -123.387,108.608 -182.538,100.174c-59.152,-8.433 -73.406,-67.014 -31.813,-130.735c-65.597,50.968 -143.558,60.55 -173.988,21.386c-30.43,-39.164 -1.878,-112.34 63.719,-163.307c-72.024,24.557 -125.265,-3.732 -118.819,-63.133c6.445,-59.401 70.152,-127.564 142.176,-152.121c-59.152,-8.434 -73.406,-67.014 -31.812,-130.736c41.594,-63.721 123.386,-108.608 182.538,-100.174Z" style="fill:#307c37;"/><path d="M1421.09,1526.83c-23.472,-50.255 -13.215,-81.532 22.891,-69.802c36.105,11.731 103.675,113.017 231.387,84.015c54.247,-12.319 30.121,118.507 32.395,156.164c19.533,-14.968 66.55,12.975 104.93,62.363c38.38,49.387 53.682,101.636 34.15,116.605c36.105,11.73 84.474,62.055 107.946,112.31c23.472,50.255 13.215,81.532 -22.89,69.801c43.004,35.287 79.765,94.507 82.039,132.164c2.275,37.657 -30.792,39.581 -73.797,4.295c38.38,49.387 53.682,101.636 34.15,116.605c-19.532,14.968 -66.55,-12.975 -104.93,-62.363c23.472,50.255 13.215,81.532 -22.89,69.802c-36.105,-11.731 -84.475,-62.055 -107.947,-112.31c2.275,37.657 -30.792,39.581 -73.796,4.295c-43.005,-35.287 -79.765,-94.507 -82.04,-132.164c-19.532,14.968 -66.549,-12.975 -104.929,-62.363c-38.38,-49.387 -53.682,-101.636 -34.15,-116.605c-36.105,-11.73 -84.475,-62.055 -107.947,-112.31c-23.472,-50.255 -13.215,-81.532 22.891,-69.801c-43.004,-35.286 -79.765,-94.507 -82.04,-132.164c-2.274,-37.657 30.793,-39.581 73.797,-4.295c-38.38,-49.387 -53.682,-101.636 -34.149,-116.605c19.532,-14.968 66.549,12.975 104.929,62.363Z" style="fill:#307c37;"/><path d="M1582.47,1747.48c-5.261,4.1 -77.572,-37.443 -35.465,-116.067" style="fill:#2a6b30;"/><path d="M1593.77,1735.38c-0,-0 -201.841,4.424 -172.124,-91.619" style="fill:#2a6b30;"/><path d="M1404.32,2073.04c0,0 -20.015,-152.345 -92.53,-160.439" style="fill:#2a6b30;"/><path d="M1290.8,2139.14c-0,-0 -148.277,-100.412 -14.401,-169.273c-0,0 -19.321,36.307 -7.623,70.391" style="fill:#2a6b30;"/><path d="M938.788,2386.37c-0,-21.635 12.576,-39.201 28.066,-39.201c15.491,0 28.067,17.566 28.067,39.201c7.745,-18.737 24.924,-25.166 38.339,-14.348c13.415,10.818 18.019,34.813 10.274,53.55c13.415,-10.818 30.594,-4.389 38.339,14.348c7.745,18.737 3.142,42.732 -10.273,53.55c15.49,0 28.067,17.566 28.067,39.201c-0,21.636 -12.577,39.202 -28.067,39.202c13.415,10.818 18.018,34.813 10.273,53.55c-7.745,18.737 -24.924,25.166 -38.339,14.348c7.745,18.737 3.141,42.732 -10.274,53.55c-13.415,10.818 -30.594,4.389 -38.339,-14.348c-0,21.635 -12.576,39.201 -28.067,39.201c-15.49,-0 -28.066,-17.566 -28.066,-39.201c-7.746,18.737 -24.925,25.166 -38.34,14.348c-13.415,-10.818 -18.018,-34.813 -10.273,-53.55c-13.415,10.818 -30.595,4.389 -38.34,-14.348c-7.745,-18.737 -3.142,-42.732 10.273,-53.55c-15.49,-0 -28.066,-17.566 -28.066,-39.202c-0,-21.635 12.576,-39.201 28.066,-39.201c-13.415,-10.818 -18.018,-34.813 -10.273,-53.55c7.745,-18.737 24.925,-25.166 38.34,-14.348c-7.745,-18.737 -3.142,-42.732 10.273,-53.55c13.415,-10.818 30.594,-4.389 38.34,14.348Z" style="fill:#2e5832;fill-opacity:0.4;"/><path d="M1479.66,1937.69c-0,-24.162 27.85,-43.778 62.154,-43.778c34.304,-0 62.154,19.616 62.154,43.778c17.152,-20.925 55.196,-28.105 84.904,-16.024c29.708,12.081 39.902,38.877 22.75,59.802c29.708,-12.081 67.752,-4.901 84.904,16.024c17.152,20.924 6.958,47.721 -22.75,59.801c34.304,0 62.154,19.617 62.154,43.778c0,24.162 -27.85,43.778 -62.154,43.778c29.708,12.081 39.902,38.877 22.75,59.802c-17.152,20.925 -55.196,28.105 -84.904,16.024c17.152,20.925 6.958,47.721 -22.75,59.802c-29.708,12.081 -67.752,4.901 -84.904,-16.024c0,24.162 -27.85,43.778 -62.154,43.778c-34.304,-0 -62.154,-19.616 -62.154,-43.778c-17.152,20.925 -55.196,28.105 -84.904,16.024c-29.708,-12.081 -39.902,-38.877 -22.75,-59.802c-29.708,12.081 -67.752,4.901 -84.904,-16.024c-17.152,-20.925 -6.958,-47.721 22.75,-59.802c-34.304,0 -62.154,-19.616 -62.154,-43.778c-0,-24.161 27.85,-43.778 62.154,-43.778c-29.708,-12.08 -39.902,-38.877 -22.75,-59.801c17.152,-20.925 55.196,-28.105 84.904,-16.024c-17.152,-20.925 -6.958,-47.721 22.75,-59.802c29.708,-12.081 67.752,-4.901 84.904,16.024Z" style="fill:#2e5832;fill-opacity:0.4;"/><path d="M1710.12,1652.41c11.875,-21.042 45.77,-24.437 75.645,-7.577c29.875,16.86 44.488,47.631 32.613,68.673c25.221,-9.793 61.882,2.653 81.817,27.775c19.934,25.122 15.642,53.469 -9.579,63.262c31.809,4.08 61.413,29.031 66.066,55.684c4.653,26.653 -17.395,44.979 -49.205,40.899c29.875,16.86 44.488,47.631 32.613,68.673c-11.875,21.043 -45.771,24.438 -75.645,7.578c19.934,25.122 15.642,53.469 -9.58,63.262c-25.221,9.793 -61.882,-2.652 -81.817,-27.775c4.653,26.653 -17.394,44.98 -49.204,40.9c-31.81,-4.08 -61.413,-29.032 -66.066,-55.685c-11.876,21.042 -45.771,24.438 -75.646,7.578c-29.874,-16.86 -44.488,-47.632 -32.612,-68.674c-25.222,9.793 -61.883,-2.652 -81.818,-27.774c-19.934,-25.122 -15.642,-53.469 9.58,-63.262c-31.81,-4.08 -61.413,-29.031 -66.066,-55.684c-4.654,-26.653 17.394,-44.979 49.204,-40.899c-29.875,-16.86 -44.488,-47.632 -32.613,-68.674c11.876,-21.042 45.771,-24.437 75.646,-7.577c-19.935,-25.122 -15.643,-53.469 9.579,-63.262c25.221,-9.793 61.883,2.652 81.817,27.774c-4.653,-26.653 17.395,-44.979 49.205,-40.899c31.809,4.08 61.413,29.032 66.066,55.684Z" style="fill:#2e5832;fill-opacity:0.4;"/><g><path d="M1733.98,3693c167.991,84.556 234.031,292.966 147.383,465.112c-86.648,172.147 -293.382,243.259 -461.373,158.702c-167.991,-84.556 -234.031,-292.966 -147.384,-465.112c86.648,-172.147 293.383,-243.259 461.374,-158.702Z" style="fill:#9c2c1e;"/><path d="M1320.4,3779.8c-18.387,21.474 -34.505,45.503 -47.797,71.911c-86.647,172.146 -20.607,380.556 147.384,465.112c15.455,7.779 31.238,14.241 47.221,19.425c-39.265,-28.639 -81.254,-27.755 -147.636,-129.93c-121.339,-186.766 -1.288,-368.608 -1.288,-368.608l85.364,-27.936l-83.248,-29.974Z" style="fill:#fff;fill-opacity:0.81;"/><path d="M1553.27,4044.89l-34.299,242.613c0,-0 -54.552,5.687 -98.326,-21.75c-49.499,-31.025 -59.703,-69.049 -59.703,-69.049l192.328,-151.814Z" style="fill:#d46557;"/><path d="M1553.27,4015.94l-216.691,114.378c-0,0 -36.576,-40.872 -39.995,-92.42c-3.866,-58.29 20.966,-88.841 20.966,-88.841l235.72,66.883Z" style="fill:#d46557;"/><path d="M1553.27,3986.39l-222.456,-102.716c-0,-0 10.264,-53.879 49.145,-87.897c43.966,-38.467 83.318,-37.288 83.318,-37.288l89.993,227.901Z" style="fill:#d46557;"/><path d="M1576.98,3995.23l20.877,-244.134c-0,-0 54.156,-8.685 99.375,16.298c51.133,28.25 63.417,65.654 63.417,65.654l-183.669,162.182Z" style="fill:#d46557;"/><path d="M1576.98,4039.79l180.463,165.743c-0,-0 -26.228,48.171 -73.64,68.69c-53.612,23.203 -90.724,10.063 -90.724,10.063l-16.099,-244.496Z" style="fill:#d46557;"/><path d="M1589.28,4018.52l234.972,-69.466c0,0 27.811,47.275 21.012,98.487c-7.689,57.91 -38.051,82.972 -38.051,82.972l-217.933,-111.993Z" style="fill:#d46557;"/><g><path d="M1422.25,4176.57c2.007,-4.583 5.728,-7.389 8.306,-6.26c2.577,1.128 3.04,5.766 1.034,10.349c-2.007,4.583 -5.729,7.389 -8.306,6.26c-2.577,-1.128 -3.041,-5.766 -1.034,-10.349Z" style="fill:#fff;"/><path d="M1385.6,4197.98c4.302,-10.39 14.021,-16.246 21.69,-13.071c7.67,3.176 10.404,14.188 6.103,24.578c-4.302,10.389 -14.021,16.246 -21.69,13.07c-7.67,-3.175 -10.404,-14.188 -6.103,-24.577Z" style="fill:#fff;"/></g></g><path d="M1724.56,3678.93c203.011,33.165 349.279,173.65 326.429,313.524c-22.85,139.873 -206.221,226.507 -409.233,193.343c-203.011,-33.165 -349.28,-173.65 -326.429,-313.524c22.85,-139.873 206.221,-226.507 409.233,-193.343Z" style="fill:#5f2b24;fill-opacity:0.31;"/><g><path d="M1956.12,2305.21c-85.664,-167.429 -15.919,-374.629 155.651,-462.412c171.57,-87.783 380.412,-23.121 466.076,144.308c85.664,167.429 15.919,374.629 -155.651,462.412c-171.57,87.783 -380.412,23.12 -466.076,-144.308Z" style="fill:#9c2c1e;"/><path d="M2309.72,2127.9l170.924,-175.564c-0,0 47.387,27.618 66.518,75.607c21.634,54.265 7.42,90.979 7.42,90.979l-244.862,8.978Z" style="fill:#d46557;"/><path d="M2292.63,2151.26l242.422,35.621c0,-0 5.39,54.582 -22.285,98.206c-31.294,49.329 -69.373,59.325 -69.373,59.325l-150.764,-193.152Z" style="fill:#d46557;"/><path d="M2275.18,2175.12l118.902,214.242c0,0 -40.095,37.426 -91.56,41.927c-58.196,5.089 -89.261,-19.096 -89.261,-19.096l61.919,-237.073Z" style="fill:#d46557;"/><path d="M2261.26,2153.97l-160.988,184.717c-0,-0 -48.837,-24.965 -70.584,-71.826c-24.591,-52.99 -12.422,-90.432 -12.422,-90.432l243.994,-22.459Z" style="fill:#d46557;"/><path d="M2287.57,2118.01l-47.797,-240.319c0,0 49.609,-23.393 99.99,-11.963c56.97,12.926 79.166,45.443 79.166,45.443l-131.359,206.839Z" style="fill:#d46557;"/><path d="M2265.09,2127.92l-230.661,-82.663c-0,-0 5.464,-54.575 41.188,-91.895c40.396,-42.2 79.698,-44.502 79.698,-44.502l109.775,219.06Z" style="fill:#d46557;"/></g><ellipse cx="2297.26" cy="2100.84" rx="189.348" ry="180.787" style="fill:#5f2b24;fill-opacity:0.31;"/><g id="Whale"><path d="M537.175,2583.8c0.53,748.741 704.787,1356.12 1571.7,1355.51c866.916,-0.614 1570.31,-608.995 1569.78,-1357.74l-3141.48,2.224Z" style="fill:#60b0ff;"/><path d="M617.455,2650.19c0,-0 -12.911,515.069 566.709,973.727" style="fill:none;stroke:#fff;stroke-width:219.73px;stroke-linecap:square;stroke-linejoin:miter;"/><path d="M1152.86,3551.06l469.244,9.806c0,-0 55.823,195.236 635.023,241.472c500.342,39.941 -859.636,277.833 -1104.27,-251.278" style="fill:#add6ff;"/><path d="M1246.9,3820.54c0,0 1156.3,132.095 1234.09,-1185.8l1150.94,15.456c-0,-0 -223.665,1281.02 -1524.05,1202.1l-860.982,-31.747Z" style="fill:#134e87;fill-opacity:0.5;"/><path d="M3788.45,2471.64l-3361.21,2.38l0.078,109.863c0.57,804.652 749.992,1465.96 1681.64,1465.3c931.652,-0.66 1680.14,-663.024 1679.57,-1467.68l-0.078,-109.863Zm-3135.76,221.947l2910.62,-2.061c-64.812,640.674 -695.184,1137.39 -1454.51,1137.93c-759.321,0.537 -1390.4,-495.284 -1456.12,-1135.87l-0,-0Z" style="fill:#2350a0;"/><path d="M981.271,3537.75c313.03,11.34 608.938,12.946 611.101,13.309" style="fill:#60b0ff;stroke:#2350a0;stroke-width:73.24px;"/><rect x="1087.12" y="2202.56" width="1508.86" height="379.022" style="fill:#60b0ff;stroke:#2350a0;stroke-width:219.73px;stroke-linejoin:miter;"/><rect x="1474.04" y="1825.06" width="746.397" height="377.5" style="fill:#60b0ff;stroke:#2350a0;stroke-width:219.73px;stroke-linejoin:miter;"/><rect x="1849.25" y="1451.68" width="371.19" height="373.38" style="fill:#60b0ff;stroke:#2350a0;stroke-width:219.73px;stroke-linejoin:miter;"/><path d="M1473.97,2184.7l-0,396.879" style="fill:none;stroke:#2350a0;stroke-width:219.73px;stroke-linecap:square;stroke-linejoin:miter;"/><path d="M2220.44,2146.16l-0,396.879" style="fill:none;stroke:#2350a0;stroke-width:219.73px;stroke-linecap:square;stroke-linejoin:miter;"/><path d="M1849.25,1767.25l-0,615.887" style="fill:none;stroke:#2350a0;stroke-width:219.73px;stroke-linecap:square;stroke-linejoin:miter;"/><circle cx="1787.17" cy="3363.33" r="102.878" style="fill:#fff;"/><path d="M1844.55,3345.53c1.746,5.626 2.686,11.604 2.686,17.8c-0,33.151 -26.914,60.065 -60.065,60.065c-33.151,-0 -60.065,-26.914 -60.065,-60.065c0,-33.151 26.914,-60.065 60.065,-60.065c11.851,0 22.906,3.44 32.221,9.377l-32.221,54.613l57.379,-21.725Z"/></g><path d="M1907.73,3946.75c-18.084,-32.879 6.863,-81.37 55.676,-108.218c48.813,-26.849 103.125,-21.952 121.21,10.927c8.745,-41.898 57.506,-81.444 108.822,-88.256c51.315,-6.812 85.877,21.674 77.132,63.573c33.231,-39.691 92.74,-59.696 132.808,-44.646c40.068,15.05 45.619,59.493 12.387,99.183c48.813,-26.848 103.125,-21.951 121.21,10.928c18.084,32.879 -6.864,81.37 -55.677,108.218c51.315,-6.811 85.877,21.674 77.132,63.573c-8.745,41.898 -57.506,81.444 -108.822,88.256c40.068,15.05 45.619,59.493 12.388,99.183c-33.232,39.691 -92.741,59.696 -132.809,44.646c18.084,32.879 -6.863,81.37 -55.676,108.219c-48.813,26.848 -103.125,21.951 -121.21,-10.928c-8.745,41.898 -57.506,81.445 -108.822,88.256c-51.315,6.812 -85.877,-21.674 -77.132,-63.572c-33.231,39.69 -92.74,59.695 -132.808,44.645c-40.068,-15.05 -45.619,-59.492 -12.387,-99.183c-48.813,26.848 -103.125,21.952 -121.21,-10.928c-18.084,-32.879 6.864,-81.37 55.677,-108.218c-51.315,6.812 -85.877,-21.674 -77.132,-63.573c8.745,-41.898 57.506,-81.444 108.822,-88.256c-40.068,-15.05 -45.619,-59.492 -12.388,-99.183c33.232,-39.691 92.741,-59.696 132.809,-44.646Z" style="fill:#307c37;"/><path d="M2367.55,1422.84c28.505,-16.54 45.952,-26.455 45.952,-26.455c-0,-0 1227.93,366.304 1360.67,424.366c132.739,58.062 642.21,168.631 801.076,150.618c158.865,-18.012 372.521,183.39 446.042,337.583c73.521,154.192 165.518,562.056 59.403,873.923c-106.114,311.866 -259.219,315.617 -354.6,364.24c-95.38,48.622 -2572.24,832.85 -2655.51,892.788c-13.54,9.746 -35.32,-0.211 -62.323,-23.741c436.403,-172.482 810.585,-675.486 926.694,-1317.54c132.806,-734.384 -114.347,-1416.62 -567.397,-1675.78Z" style="fill:#ffe9bc;"/><path d="M2773.66,3672.59l1610.8,-356.973c0,-0 758.056,-109.844 458.271,-1207.54l239.916,261.638l46.163,563.641l-144.74,490.882c-0,0 -1467.19,589.582 -1854.79,698.707c-387.591,109.125 -838.849,181.131 -838.849,181.131l483.223,-631.484Z" style="fill:#d0b083;"/><path d="M2878.21,1831.68c-0,-0 382.513,450.204 389.713,968.662c4.115,296.26 -73.558,808.131 -357.598,1160.87c-137.204,170.389 -439.221,326.682 -730.488,342.858c0,-0 756.933,-715.568 760.939,-1158.08c4.007,-442.515 -62.566,-1314.31 -62.566,-1314.31Z" style="fill:#d0b083;"/><path d="M2723.95,1940.51c-0,0 1808.87,460.269 2205,164.815c-0,0 -100.919,-77.882 -249.776,-117.417c-148.858,-39.534 -1161.66,-244.363 -1336.43,-323.367c-174.775,-79.004 -910.912,-316.953 -912.526,-268.149l293.737,544.118Z" style="fill:#fff;"/><path d="M2122.23,4522.75c6.395,-2.48 136.081,-52.673 278.998,-101.662c683.524,-234.295 2292.48,-747.853 2369.21,-786.966c109.147,-55.64 281.269,-62.908 402.699,-419.786c115.033,-338.075 15.994,-780.261 -63.705,-947.411c-50.394,-105.69 -157.829,-231.323 -275.389,-310.053c-90.009,-60.278 -186.431,-91.986 -269.804,-82.533c-148.99,16.892 -626.45,-88.603 -750.939,-143.056c-133.851,-58.547 -1371.88,-428.476 -1371.88,-428.476c-25.512,-7.61 -0.337,22.351 -23.483,35.506c0,-0 12.897,1.31 -16.077,18.122c-30.205,17.526 14.552,29.194 14.659,64.115c0.108,34.921 -16.812,84.294 13.5,101.633c424.377,242.758 533.234,871.157 408.832,1559.06c-109.284,604.313 -455.741,1081.76 -866.492,1244.1c-31.702,12.53 -54.576,40.684 -60.35,74.28c-5.773,33.596 6.389,67.771 32.09,90.166c71.815,62.579 139.336,57.206 178.14,32.958Zm-106.217,-163.649l-2.494,1.547c0.764,-0.55 1.594,-1.07 2.494,-1.547Zm690.302,-2772.93c370.549,111.712 940.965,285.673 1028.71,324.053c140.992,61.672 682.472,177.314 851.213,158.182c43.76,-4.962 91.879,19.109 139.121,50.747c88.253,59.102 169.941,152.49 207.772,231.831c67.342,141.235 152.298,514.777 55.1,800.435c-90.807,266.879 -224.88,267.086 -306.501,308.694c-69.758,35.561 -1420.76,465.9 -2163.63,715.192c245.7,-259.624 435.151,-629.189 512.934,-1059.31c109.571,-605.899 -31.116,-1176.01 -324.723,-1529.83Z" style="fill:#8d6c3e;"/><path d="M3060.33,4082.6c-0,-0 418.953,-113.337 530.048,-808.1c0,0 -51.324,547.682 -140.653,628.239l-389.395,179.861Z" style="fill:#8d6c3e;"/><path d="M4336.19,3637.74c0,0 183.795,-144.913 202.564,-320.115c-0,0 8.731,210.434 -20.969,269.891l-181.595,50.224Z" style="fill:#8d6c3e;"/><path d="M4165.3,1950.31c0,-0 163.704,259.128 438.046,315.529" style="fill:#8d6c3e;"/><path d="M3709.62,2196.31c-0,-0 244.149,350.705 203.95,723.696" style="fill:#8d6c3e;"/><path d="M3990.63,2791.73c0,0 65.598,82.419 3.396,256.547" style="fill:#8d6c3e;"/><path d="M4713.91,2882.05c0,-0 103.947,182.436 28.878,306.122" style="fill:#8d6c3e;"/><path d="M2969.93,3046.86c-22.443,-19.7 -36.476,-51.579 -35.255,-87.036c-26.363,49.114 -55.121,86.038 -96.808,55.722c-41.686,-30.317 -41.287,-189.204 -64.207,-240.016c-22.92,-50.811 -100.734,-77.485 -68.216,-135.627c-49.283,-1.699 -92.569,-23.981 -90.581,-81.673c1.988,-57.692 43.613,-103.152 92.897,-101.454c-41.687,-30.316 -54.128,-94.803 -27.765,-143.917c26.363,-49.113 81.611,-64.374 123.298,-34.058c-22.92,-50.811 -6.071,-114.289 37.604,-141.664c19.37,-12.141 40.783,-15.155 60.614,-10.318c43.634,215.91 110.566,622.489 68.419,920.041Z" style="fill:#45ae4e;"/><path d="M2835.47,2585.74c-7.229,0.065 -84.014,2.741 -89.132,48.021" style="fill:#458e4b;"/><path d="M2842.64,2589.17c-0,-0 -53.398,-124.271 -133.007,-32.78c0,-0 42.041,-18.968 77.09,14.058c35.048,33.027 55.917,18.722 55.917,18.722Z" style="fill:#458e4b;"/><path d="M2837.48,2216.86c-5.36,-54.557 4.141,-100.212 21.202,-101.888c17.062,-1.676 35.265,41.257 40.625,95.814c3.889,-48.086 21.219,-66.158 38.674,-40.33c17.456,25.827 28.47,85.836 24.581,133.922c12.096,-28.73 32.611,-14.377 45.784,32.034c13.172,46.41 14.046,107.415 1.95,136.145c17.062,-1.676 35.265,41.257 40.625,95.815c5.36,54.558 -4.141,100.213 -21.202,101.889c17.455,25.827 28.47,85.836 24.58,133.922c-3.889,48.087 -21.218,66.158 -38.674,40.331c13.173,46.41 14.047,107.415 1.951,136.146c-12.096,28.73 -32.611,14.376 -45.784,-32.034c5.36,54.558 -4.14,100.212 -21.202,101.889c-17.062,1.676 -35.265,-41.257 -40.625,-95.815c-3.889,48.086 -21.218,66.158 -38.674,40.331c-17.456,-25.828 -28.47,-85.836 -24.581,-133.923c-12.096,28.731 -32.611,14.377 -45.783,-32.034c-13.173,-46.41 -14.047,-107.415 -1.951,-136.145c-17.062,1.676 -35.265,-41.257 -40.625,-95.815c-5.36,-54.558 4.141,-100.212 21.203,-101.889c-17.456,-25.827 -28.47,-85.835 -24.581,-133.922c3.889,-48.086 21.218,-66.158 38.674,-40.331c-13.173,-46.41 -14.047,-107.415 -1.951,-136.145c12.096,-28.731 32.611,-14.377 45.784,32.033Z" style="fill:#2c7c32;fill-opacity:0.32;"/><path d="M2328.21,1227.3c202.796,83.02 376.853,233.101 510.723,432.748c244.913,365.248 354.411,901.426 252.165,1466.82c-102.245,565.39 -392.591,1029.26 -749.912,1285.6c-238.799,171.313 -507.917,252.186 -776.572,219.998c56.268,-68.389 111.389,-142.794 164.877,-222.654c21.109,-31.517 41.964,-63.884 62.535,-97.065c126.576,-20.826 249.914,-76.209 364.154,-158.165c300.16,-215.333 536.713,-609.25 622.601,-1084.19c85.889,-474.943 2.28,-926.759 -203.454,-1233.58c-45.326,-67.597 -96.626,-127.921 -153.39,-179.133c-9.669,-81.709 -64.449,-134.883 -80.82,-208.864c-15.333,-69.294 8.149,-159.903 -12.907,-221.509Z" style="fill:#553d1c;"/><path d="M2330.34,1715.99c9.246,2.159 15.28,-2.104 11.315,-28.706c-9.954,-66.77 27.183,-1.135 15.383,-42.216c-7.162,-24.936 -24.488,-108.949 -4.507,-151.207c19.981,-42.258 80.899,-117.395 124.395,-102.339c43.855,15.179 59.044,86.485 33.897,159.134c43.705,-55.326 99.815,-60.08 125.221,-10.609c25.406,49.47 10.55,134.552 -33.155,189.878c50.553,-23.179 91.717,15.245 91.867,85.751c0.15,70.505 -40.771,146.565 -91.323,169.743c36.526,12.643 56.969,48.408 46.977,107.279l-39.006,-0.04c-1.973,-15.01 -5.059,-29.317 -9.088,-42.931c-5.921,-21.28 -14.045,-42.245 -24.47,-62.621c-50.327,-98.364 -143.171,-161.258 -246.001,-178.607c-0.679,-0.204 -1.033,-0.303 -1.033,-0.303c0,-0 -0.164,-0.18 -0.472,-0.525l-0,-91.681Z" style="fill:#307c37;"/><path d="M2394.2,1825.07c15.834,-7.626 36.64,-16.887 58.9,-24.752c47.556,-16.801 101.754,-27.228 128.319,-1.732l-171.036,32.906c-5.336,-2.275 -10.73,-4.416 -16.183,-6.422Z" style="fill:#2a6b30;"/><path d="M2369.15,1816.92l143.398,-174.945c-20.437,95.801 -61.077,145.382 -96.608,171.012c-7.049,5.085 -13.897,9.227 -20.345,12.599c-8.691,-3.24 -17.517,-6.133 -26.445,-8.666Z" style="fill:#2a6b30;"/><path d="M2330.48,1765.83c6.252,5.668 11.336,12.836 14.696,21.287c4.889,-33.556 45.034,-122.675 77.968,-119.262c32.933,3.412 59.465,73.313 54.577,106.869c20.7,-27.354 49.851,-39.64 75.928,-19.906c26.077,19.733 26.067,88.822 5.367,116.176c30.966,-13.823 45.937,5.362 58.17,36.129c12.234,30.767 -2.223,66.055 -33.188,79.878c32.933,3.413 43.176,58.211 46.248,89.986c1.557,16.093 -5.742,24.927 -17.374,29.394c-3.97,-40.575 -15.434,-80.965 -35.034,-119.273c-50.55,-98.799 -143.992,-161.813 -247.358,-178.833l-0,-42.445Z" style="fill:#2f6e35;fill-opacity:0.55;"/><path d="M1754.21,4239.1c48.221,-18.717 99.422,-2.862 114.266,35.383c14.845,38.245 -12.252,84.49 -60.473,103.207c-48.221,18.716 -99.422,2.862 -114.266,-35.383c-14.845,-38.245 12.252,-84.49 60.473,-103.207Z" style="fill:#307c37;"/><path d="M1868.06,4238.03c34.024,-13.206 68.385,-6.565 76.686,14.82c8.3,21.385 -12.583,49.469 -46.606,62.675c-34.023,13.206 -68.385,6.565 -76.685,-14.82c-8.301,-21.385 12.582,-49.469 46.605,-62.675Z" style="fill:#307c37;"/><path d="M1860.3,4194.6c-0,-0 2.864,62.177 -79.199,102.536" style="fill:#2a6b30;"/><path d="M1861.81,4187.21c0,-0 30.697,54.147 -24.212,127.278" style="fill:#2a6b30;"/><path d="M1801.9,4150.79c-0,0 -35.678,-8.114 -73.158,31.493" style="fill:#2a6b30;"/><path d="M1813.3,4239.2c-20.704,12.861 -43.627,13.459 -51.158,1.335c-7.531,-12.124 3.164,-32.408 23.869,-45.269c-21.696,5.076 -36.201,-4.549 -32.37,-21.479c3.83,-16.93 24.554,-34.795 46.25,-39.871c-16.874,-4.069 -19.073,-21.337 -4.908,-38.536c14.165,-17.2 39.365,-27.86 56.239,-23.791c-7.53,-12.124 3.165,-32.408 23.869,-45.268c20.705,-12.861 43.628,-13.459 51.159,-1.335c3.83,-16.93 24.555,-34.796 46.251,-39.871c21.696,-5.076 36.2,4.549 32.37,21.478c14.165,-17.199 39.365,-27.859 56.239,-23.79c16.874,4.07 19.073,21.337 4.908,38.537c20.705,-12.861 43.628,-13.459 51.159,-1.335c7.531,12.124 -3.165,32.409 -23.869,45.269c21.696,-5.075 36.201,4.549 32.37,21.479c-3.83,16.93 -24.554,34.795 -46.25,39.871c16.874,4.069 19.073,21.337 4.908,38.537c-14.165,17.199 -39.365,27.859 -56.24,23.79c7.531,12.124 -3.164,32.408 -23.869,45.269c-20.704,12.86 -43.628,13.458 -51.158,1.334c-3.831,16.93 -24.555,34.796 -46.251,39.871c-21.696,5.076 -36.2,-4.548 -32.37,-21.478c-14.165,17.199 -39.365,27.859 -56.239,23.79c-16.874,-4.069 -19.074,-21.337 -4.909,-38.537Z" style="fill:#2f6e35;fill-opacity:0.66;"/><path d="M2052.39,3826.75c-12.588,-22.886 15.817,-38.154 46.03,-55.834c41.905,-24.522 76.501,-26.604 119.637,-35.426c43.137,-8.821 139.268,-25.453 128.898,6.066c30.549,-31.707 153.204,-44.729 185.376,-36.61c32.172,8.12 -32.39,60.266 -19.803,83.152c12.588,22.885 -6.312,65.018 -48.855,88.418c43.137,-8.822 69.739,9.605 59.369,41.124c-10.37,31.519 -53.811,64.27 -96.947,73.092c32.172,8.12 33.49,40.454 2.941,72.161c-30.549,31.707 -81.471,50.857 -113.643,42.737c12.587,22.885 -11.732,60.462 -54.275,83.862c-42.542,23.399 -87.3,23.816 -99.888,0.931c-10.37,31.518 -53.811,64.27 -96.947,73.091c-43.136,8.822 -69.739,-9.605 -59.368,-41.124c-30.549,31.707 -81.471,50.857 -113.643,42.737c-32.172,-8.12 -33.49,-40.454 -2.941,-72.161c-42.543,23.399 -87.301,23.817 -99.888,0.931c-12.588,-22.885 11.732,-60.462 54.274,-83.861c-43.136,8.821 -69.738,-9.606 -59.368,-41.125c10.37,-31.519 53.811,-64.27 96.947,-73.092c-32.172,-8.119 -21.359,-56.788 8.489,-89.156c25.89,-28.075 131.432,-88.033 163.605,-79.913Z" style="fill:#45ae4e;"/><path d="M1910.44,4122.8c0,-0 51.478,77.24 93.727,50.673" style="fill:#458e4b;"/><path d="M2176.46,4110.39c0,0 56.638,21.55 84.957,-28.862" style="fill:#458e4b;"/><path d="M2055.55,3850.8c-0,-0 -49.522,153.481 26.679,240.012" style="fill:#458e4b;"/><path d="M2055.55,3850.8c-0,-0 -70.123,36.647 -72.667,133.997" style="fill:#458e4b;"/><path d="M2339.36,3760.2c0,0 -29.228,41.69 24.44,107.02" style="fill:#458e4b;"/><path d="M2328.15,3760.2c0,0 -127.92,155.28 -73.071,181.197" style="fill:#458e4b;"/><path d="M1949.71,3863.25c38.752,-22.205 83.607,-41.315 102.679,-36.501c-12.588,-22.886 15.817,-38.154 46.03,-55.834c41.905,-24.522 76.501,-26.604 119.637,-35.426c43.137,-8.821 139.268,-25.453 128.898,6.066c30.549,-31.707 153.204,-44.729 185.376,-36.61c32.172,8.12 -32.39,60.266 -19.803,83.152c9.922,18.038 0.281,48.034 -25.083,71.392c-4.436,-2.068 -8.513,-4.298 -12.183,-6.687c0.616,30.507 -61.953,56.549 -139.637,58.118c-77.683,1.57 -141.253,-21.923 -141.87,-52.43c-38.308,27.204 -124.279,38.011 -191.863,24.117c-22.452,-4.616 -40.068,-11.381 -52.181,-19.357Z" style="fill:#2c7c32;fill-opacity:0.33;"/><path d="M703.305,3875.54c0,-0 111.272,-54.328 188.944,-17.278" style="fill:#2a6b30;"/><path d="M714.974,3935.9c-0,-0 87.1,-88.014 172.649,-78.681" style="fill:#2a6b30;"/><path d="M714.974,3655.74c-0,-0 28.712,60.197 99.721,62.436" style="fill:#2a6b30;"/><path d="M765.659,3730.11c-0,0 89.73,24.372 98.072,2.684" style="fill:#2a6b30;"/><path d="M917.472,4162.38c-0,-0 91.078,68.039 180.23,6.366c89.152,-61.674 -35.942,-13.34 -43.439,-6.314" style="fill:#2a6b30;"/></g></svg>