<?xml version="1.0" encoding="UTF-8" standalone="no"?><!DOCTYPE svg PUBLIC "-//W3C//DTD SVG 1.1//EN" "http://www.w3.org/Graphics/SVG/1.1/DTD/svg11.dtd"><svg width="100%" height="100%" viewBox="0 0 4267 4267" version="1.1" xmlns="http://www.w3.org/2000/svg" xmlns:xlink="http://www.w3.org/1999/xlink" xml:space="preserve" xmlns:serif="http://www.serif.com/" style="fill-rule:evenodd;clip-rule:evenodd;stroke-linecap:square;stroke-miterlimit:1.5;"><g id="Layer2"></g><g id="Layer1"><path d="M1561.15,833.272c525.543,95.039 843.602,772.813 709.818,1512.6c-133.784,739.788 -669.073,1263.24 -1194.62,1168.2c-525.543,-95.04 -843.601,-772.814 -709.818,-1512.6c133.784,-739.789 669.073,-1263.24 1194.62,-1168.2Z" style="fill:#936e3b;"/><path d="M1585.25,700.017c-245.504,-44.397 -493.634,23.631 -712.042,180.316c-304.914,218.743 -552.677,614.579 -639.926,1097.05c-87.249,482.466 6.189,940.004 215.181,1251.68c149.7,223.254 358.289,373.875 603.794,418.272c245.504,44.397 493.634,-23.631 712.043,-180.316c304.914,-218.744 552.676,-614.579 639.925,-1097.05c87.249,-482.466 -6.188,-940.005 -215.181,-1251.68c-149.7,-223.254 -358.289,-373.875 -603.794,-418.272Zm-48.195,266.51c174.935,31.636 320.376,143.515 427.045,302.596c175.56,261.819 246.907,647.368 173.615,1052.65c-73.292,405.285 -275.15,741.428 -531.287,925.179c-155.628,111.647 -331.04,165.503 -505.975,133.867c-174.936,-31.635 -320.376,-143.514 -427.046,-302.595c-175.559,-261.819 -246.906,-647.368 -173.614,-1052.65c73.291,-405.286 275.149,-741.428 531.286,-925.179c155.628,-111.647 331.04,-165.503 505.976,-133.868Z" style="fill:#553d1c;"/><g><path d="M742.185,2330.93c127.684,97.226 150.46,282.389 50.828,413.232c-99.631,130.842 -284.182,158.134 -411.866,60.908c-127.684,-97.226 -150.46,-282.389 -50.828,-413.232c99.631,-130.842 284.182,-158.134 411.866,-60.908Z" style="fill:#9c2c1e;"/><path d="M363.064,2355.28c4.163,-0.757 6.652,-1.203 6.652,-1.203l20.053,49.571l-81.582,51.883c0,-0 -81.809,215.859 78.507,321.524l54.447,33.833l-41.817,6.942c-6.18,-3.991 -12.24,-8.243 -18.177,-12.764c-127.684,-97.226 -150.46,-282.389 -50.828,-413.232c10.092,-13.254 21.056,-25.446 32.745,-36.554Z" style="fill:#fff;fill-opacity:0.8;"/><path d="M535.514,2597.82l-66.748,198.148c-0,0 -46.652,-3.768 -79.077,-33.636c-36.666,-33.773 -39.274,-67.267 -39.274,-67.267l185.099,-97.245Z" style="fill:#d46557;"/><path d="M540.045,2573.53l-199.676,62.027c-0,0 -24.284,-40.011 -19.083,-83.788c5.881,-49.501 31.493,-71.242 31.493,-71.242l187.266,93.003Z" style="fill:#d46557;"/><path d="M544.671,2548.74l-170.53,-120.985c0,-0 17.044,-43.59 54.984,-66.04c42.902,-25.386 75.728,-18.237 75.728,-18.237l39.818,205.262Z" style="fill:#d46557;"/><path d="M563.181,2559.88l55.728,-201.525c-0,-0 46.788,1.192 80.81,29.227c38.471,31.702 42.921,65.001 42.921,65.001l-179.459,107.297Z" style="fill:#d46557;"/><path d="M556.207,2597.25l125.438,167.282c0,0 -29.541,36.303 -72.525,46.094c-48.605,11.072 -77.679,-5.76 -77.679,-5.76l24.766,-207.616Z" style="fill:#d46557;"/><path d="M569.853,2581.34l207.981,-21.491c-0,-0 15.929,44.009 2.209,85.905c-15.514,47.374 -44.906,63.645 -44.906,63.645l-165.284,-128.059Z" style="fill:#d46557;"/></g><ellipse cx="541.848" cy="2605.11" rx="185.278" ry="210.668" style="fill:#5f2b24;fill-opacity:0.31;"/><path d="M725.95,2661.76c-0,-49.169 63.064,-89.088 140.741,-89.088c77.676,0 140.74,39.919 140.74,89.088c38.839,-42.582 124.986,-57.193 192.256,-32.608c67.27,24.584 90.353,79.114 51.515,121.695c67.27,-24.584 153.417,-9.973 192.255,32.609c38.839,42.581 15.756,97.111 -51.515,121.695c77.677,0 140.741,39.919 140.741,89.088c0,49.169 -63.064,89.087 -140.741,89.087c67.271,24.585 90.354,79.115 51.515,121.696c-38.838,42.582 -124.985,57.193 -192.255,32.608c38.838,42.582 15.755,97.112 -51.515,121.696c-67.27,24.585 -153.417,9.973 -192.256,-32.608c0,49.169 -63.064,89.087 -140.74,89.087c-77.677,0 -140.741,-39.918 -140.741,-89.087c-38.839,42.581 -124.986,57.193 -192.256,32.608c-67.27,-24.584 -90.353,-79.114 -51.515,-121.696c-67.27,24.585 -153.417,9.974 -192.255,-32.608c-38.838,-42.581 -15.756,-97.111 51.515,-121.696c-77.677,0 -140.741,-39.918 -140.741,-89.087c-0,-49.169 63.064,-89.088 140.741,-89.088c-67.271,-24.584 -90.353,-79.114 -51.515,-121.695c38.838,-42.582 124.985,-57.193 192.255,-32.609c-38.838,-42.581 -15.755,-97.111 51.515,-121.695c67.27,-24.585 153.417,-9.974 192.256,32.608Z" style="fill:#307c37;"/><path d="M476.983,2864.04c-24.582,-30.366 -27.779,-68.586 -7.136,-85.296c20.643,-16.711 57.359,-5.625 81.94,24.741c-10.967,-34.653 4.622,-62.209 34.79,-61.498c30.168,0.711 63.564,29.422 74.531,64.075c5.586,-29.655 35.785,-39.164 67.394,-21.222c31.61,17.942 52.737,56.585 47.151,86.24c20.642,-16.711 57.359,-5.625 81.94,24.741c24.581,30.365 27.779,68.585 7.136,85.296c30.168,0.711 63.564,29.422 74.53,64.075c10.967,34.652 -4.622,62.209 -34.79,61.498c31.61,17.942 52.737,56.584 47.15,86.239c-5.586,29.655 -35.785,39.164 -67.394,21.222c24.581,30.365 27.779,68.585 7.136,85.296c-20.643,16.71 -57.359,5.624 -81.941,-24.741c10.967,34.652 -4.622,62.209 -34.79,61.498c-30.168,-0.711 -63.564,-29.422 -74.53,-64.075c-5.587,29.654 -35.785,39.164 -67.395,21.221c-31.609,-17.942 -52.737,-56.584 -47.15,-86.239c-20.643,16.711 -57.359,5.624 -81.94,-24.741c-24.582,-30.366 -27.779,-68.586 -7.136,-85.296c-30.168,-0.711 -63.564,-29.422 -74.531,-64.075c-10.967,-34.653 4.622,-62.209 34.79,-61.498c-31.609,-17.942 -52.736,-56.585 -47.15,-86.239c5.587,-29.655 35.785,-39.164 67.395,-21.222Z" style="fill:#2f6e35;fill-opacity:0.66;"/><path d="M908.887,2778.8c20.266,-20.353 63.966,-9.746 97.526,23.67c33.559,33.417 44.352,77.071 24.086,97.424c34.331,-0.918 77.573,30.094 96.504,69.21c18.93,39.116 6.427,71.619 -27.903,72.537c39.196,18.763 70.393,61.871 69.622,96.206c-0.771,34.334 -33.219,46.976 -72.416,28.213c33.56,33.416 44.353,77.07 24.087,97.423c-20.266,20.353 -63.966,9.747 -97.526,-23.67c18.931,39.116 6.428,71.619 -27.903,72.537c-34.331,0.917 -77.572,-30.095 -96.503,-69.211c-0.771,34.334 -33.219,46.976 -72.416,28.213c-39.197,-18.763 -70.394,-61.872 -69.623,-96.206c-20.266,20.352 -63.966,9.746 -97.525,-23.671c-33.56,-33.416 -44.353,-77.07 -24.087,-97.423c-34.331,0.918 -77.573,-30.095 -96.503,-69.211c-18.931,-39.116 -6.428,-71.618 27.903,-72.536c-39.197,-18.763 -70.394,-61.872 -69.623,-96.206c0.771,-34.335 33.219,-46.976 72.416,-28.213c-33.56,-33.417 -44.353,-77.071 -24.087,-97.424c20.266,-20.352 63.966,-9.746 97.526,23.67c-18.931,-39.116 -6.428,-71.618 27.903,-72.536c34.331,-0.918 77.572,30.095 96.503,69.211c0.771,-34.335 33.22,-46.976 72.416,-28.213c39.197,18.763 70.394,61.872 69.623,96.206Z" style="fill:#45ae4e;"/><path d="M553.939,2856.57c0,0 67.408,51.371 92.664,26.02" style="fill:#458e4b;"/><path d="M832.655,2976.97c-0,-0 -93.965,65.29 -66.283,126.232" style="fill:#458e4b;"/><path d="M845.779,2948.86c0,-0 14.808,64.471 -185.785,55.348" style="fill:#458e4b;"/><path d="M639.658,2545.49c-30.335,-44.241 -36.098,-93.094 -12.862,-109.026c23.236,-15.932 66.728,7.05 97.063,51.291c-14.653,-46.28 2.103,-77.096 37.393,-68.774c35.29,8.322 75.838,52.652 90.49,98.932c4.956,-35.918 39.74,-40.441 77.629,-10.094c37.889,30.348 64.626,84.147 59.671,120.065c23.236,-15.932 66.728,7.05 97.063,51.291c30.335,44.24 36.098,93.093 12.862,109.026c35.291,8.322 75.838,52.652 90.491,98.932c14.653,46.279 -2.102,77.096 -37.393,68.774c37.889,30.347 64.626,84.146 59.671,120.064c-4.956,35.918 -39.74,40.441 -77.628,10.094c30.334,44.241 36.098,93.093 12.862,109.026c-23.236,15.932 -66.729,-7.05 -97.064,-51.291c14.653,46.28 -2.102,77.096 -37.393,68.774c-35.29,-8.323 -75.837,-52.653 -90.49,-98.932c-4.956,35.918 -39.74,40.441 -77.629,10.093c-37.888,-30.347 -64.626,-84.146 -59.67,-120.064c-23.236,15.932 -66.729,-7.05 -97.064,-51.291c-30.335,-44.241 -36.098,-93.093 -12.862,-109.026c-35.29,-8.322 -75.838,-52.652 -90.491,-98.932c-14.652,-46.28 2.103,-77.096 37.393,-68.774c-37.889,-30.347 -64.626,-84.146 -59.671,-120.064c4.956,-35.918 39.74,-40.441 77.629,-10.094Z" style="fill:#2c7c32;fill-opacity:0.39;"/><path d="M518.521,1649.95c-13.095,-40.245 -6.812,-78.423 14.021,-85.201c20.833,-6.779 48.378,20.392 61.473,60.638c-0.924,-38.243 18.29,-57.721 42.879,-43.468c24.59,14.252 45.303,56.871 46.227,95.114c11.495,-25.993 38.491,-21.551 60.248,9.913c21.757,31.465 30.089,78.113 18.595,104.106c20.833,-6.779 48.378,20.392 61.473,60.638c13.095,40.245 6.813,78.423 -14.02,85.202c24.589,14.252 45.303,56.871 46.227,95.114c0.924,38.243 -18.29,57.721 -42.879,43.468c21.757,31.465 30.089,78.113 18.594,104.106c-11.494,25.993 -38.49,21.551 -60.247,-9.913c13.095,40.246 6.812,78.423 -14.021,85.202c-20.833,6.778 -48.378,-20.392 -61.473,-60.638c0.924,38.243 -18.29,57.72 -42.879,43.468c-24.59,-14.252 -45.303,-56.872 -46.227,-95.115c-11.495,25.994 -38.491,21.552 -60.248,-9.913c-21.757,-31.464 -30.089,-78.112 -18.595,-104.105c-20.833,6.778 -48.378,-20.393 -61.473,-60.638c-13.095,-40.246 -6.813,-78.423 14.02,-85.202c-24.589,-14.252 -45.303,-56.872 -46.227,-95.115c-0.924,-38.243 18.29,-57.72 42.879,-43.468c-21.757,-31.464 -30.089,-78.112 -18.594,-104.105c11.494,-25.994 38.49,-21.552 60.247,9.912Z" style="fill:#307c37;"/><path d="M893.941,3292.12c0,0 -69.086,2.621 -106.483,60.667" style="fill:#2a6b30;"/><path d="M574.701,1834.23c0,-0 40.935,-39.097 -0.287,-133.674" style="fill:#2a6b30;"/><path d="M586.212,1836.1c-0,0 -112.586,-73.49 -82.681,-135.553" style="fill:#2a6b30;"/><path d="M891.727,1295.55c-25.966,-33.42 -1.603,-95.863 54.374,-139.355c55.976,-43.493 122.503,-51.67 148.47,-18.25c5.5,-50.689 59.863,-108.855 121.324,-129.81c61.46,-20.955 106.892,3.185 101.392,53.873c35.493,-54.375 105.29,-92.678 155.766,-85.482c50.476,7.197 62.64,57.185 27.146,111.561c55.976,-43.492 122.504,-51.67 148.47,-18.249c25.967,33.42 1.603,95.863 -54.373,139.355c61.46,-20.955 106.893,3.185 101.392,53.874c-5.5,50.688 -59.863,108.854 -121.324,129.81c50.476,7.196 62.64,57.185 27.147,111.561c-35.494,54.375 -105.29,92.678 -155.766,85.482c25.967,33.42 1.603,95.863 -54.373,139.355c-55.976,43.493 -122.504,51.67 -148.47,18.25c-5.501,50.689 -59.864,108.855 -121.324,129.81c-61.46,20.955 -106.893,-3.184 -101.393,-53.873c-35.493,54.375 -105.289,92.679 -155.765,85.482c-50.476,-7.197 -62.64,-57.185 -27.147,-111.561c-55.976,43.492 -122.503,51.67 -148.47,18.25c-25.967,-33.421 -1.603,-95.864 54.373,-139.356c-61.46,20.955 -106.892,-3.185 -101.392,-53.873c5.5,-50.689 59.864,-108.855 121.324,-129.811c-50.476,-7.196 -62.64,-57.185 -27.146,-111.56c35.493,-54.376 105.289,-92.679 155.765,-85.483Z" style="fill:#307c37;"/><path d="M979.142,1004.61c-20.029,-42.885 -11.276,-69.574 19.533,-59.564c30.81,10.01 88.47,96.44 197.451,71.692c46.291,-10.512 25.703,101.127 27.644,133.26c16.668,-12.773 56.789,11.073 89.54,53.217c32.751,42.143 45.809,86.729 29.141,99.502c30.81,10.01 72.085,52.954 92.115,95.838c20.029,42.884 11.276,69.574 -19.533,59.564c36.696,30.111 68.065,80.646 70.006,112.78c1.941,32.134 -26.276,33.776 -62.973,3.665c32.751,42.144 45.809,86.73 29.141,99.503c-16.667,12.773 -56.789,-11.072 -89.54,-53.216c20.029,42.884 11.277,69.574 -19.533,59.564c-30.81,-10.01 -72.085,-52.954 -92.114,-95.838c1.941,32.134 -26.277,33.776 -62.974,3.665c-36.697,-30.111 -68.066,-80.646 -70.007,-112.78c-16.667,12.773 -56.789,-11.072 -89.54,-53.216c-32.75,-42.144 -45.808,-86.73 -29.141,-99.503c-30.81,-10.01 -72.085,-52.953 -92.114,-95.838c-20.029,-42.884 -11.277,-69.574 19.533,-59.564c-36.697,-30.111 -68.066,-80.646 -70.007,-112.78c-1.941,-32.133 26.277,-33.776 62.973,-3.665c-32.75,-42.143 -45.808,-86.729 -29.141,-99.502c16.668,-12.774 56.789,11.072 89.54,53.216Z" style="fill:#307c37;"/><path d="M1116.85,1192.9c-4.488,3.498 -66.194,-31.952 -30.262,-99.044" style="fill:#2a6b30;"/><path d="M1126.5,1182.57c0,0 -172.237,3.776 -146.878,-78.181" style="fill:#2a6b30;"/><path d="M964.835,1470.71c-0,-0 -17.08,-130.002 -78.959,-136.908" style="fill:#2a6b30;"/><path d="M867.964,1527.11c0,0 -126.529,-85.685 -12.288,-144.446c-0,0 -16.487,30.982 -6.505,60.067" style="fill:#2a6b30;"/><path d="M567.579,1738.08c0,-18.463 10.732,-33.452 23.95,-33.452c13.219,-0 23.95,14.989 23.95,33.452c6.61,-15.989 21.269,-21.476 32.717,-12.245c11.448,9.232 15.376,29.707 8.766,45.696c11.448,-9.231 26.108,-3.745 32.717,12.244c6.609,15.989 2.681,36.465 -8.766,45.696c13.218,0 23.95,14.99 23.95,33.452c-0,18.463 -10.732,33.452 -23.95,33.452c11.447,9.231 15.375,29.707 8.766,45.696c-6.609,15.989 -21.269,21.475 -32.717,12.244c6.61,15.989 2.682,36.465 -8.766,45.696c-11.448,9.231 -26.107,3.745 -32.717,-12.244c0,18.462 -10.731,33.451 -23.95,33.451c-13.218,0 -23.95,-14.989 -23.95,-33.451c-6.609,15.989 -21.269,21.475 -32.716,12.244c-11.448,-9.231 -15.376,-29.707 -8.767,-45.696c-11.447,9.231 -26.107,3.745 -32.716,-12.244c-6.61,-15.989 -2.681,-36.465 8.766,-45.696c-13.218,-0 -23.95,-14.989 -23.95,-33.452c-0,-18.462 10.732,-33.452 23.95,-33.452c-11.447,-9.231 -15.376,-29.707 -8.766,-45.696c6.609,-15.989 21.269,-21.475 32.716,-12.244c-6.609,-15.989 -2.681,-36.464 8.767,-45.696c11.447,-9.231 26.107,-3.744 32.716,12.245Z" style="fill:#2e5832;fill-opacity:0.4;"/><path d="M1029.12,1355.21c0,-20.618 23.766,-37.357 53.038,-37.357c29.273,0 53.039,16.739 53.039,37.357c14.636,-17.856 47.1,-23.982 72.451,-13.673c25.351,10.309 34.05,33.175 19.413,51.03c25.351,-10.309 57.815,-4.182 72.452,13.674c14.636,17.856 5.937,40.722 -19.414,51.031c29.273,-0 53.039,16.739 53.039,37.357c-0,20.618 -23.766,37.357 -53.039,37.357c25.351,10.309 34.05,33.175 19.414,51.031c-14.637,17.856 -47.101,23.983 -72.452,13.674c14.637,17.856 5.938,40.722 -19.413,51.031c-25.351,10.309 -57.815,4.182 -72.451,-13.674c-0,20.618 -23.766,37.357 -53.039,37.357c-29.272,0 -53.038,-16.739 -53.038,-37.357c-14.636,17.856 -47.1,23.983 -72.451,13.674c-25.351,-10.309 -34.05,-33.175 -19.414,-51.031c-25.35,10.309 -57.815,4.182 -72.451,-13.674c-14.636,-17.856 -5.937,-40.722 19.413,-51.031c-29.272,0 -53.038,-16.739 -53.038,-37.357c0,-20.618 23.766,-37.357 53.038,-37.357c-25.35,-10.309 -34.049,-33.175 -19.413,-51.031c14.636,-17.856 47.101,-23.983 72.451,-13.674c-14.636,-17.855 -5.937,-40.721 19.414,-51.03c25.351,-10.309 57.815,-4.183 72.451,13.673Z" style="fill:#2e5832;fill-opacity:0.4;"/><path d="M1225.79,1111.77c10.134,-17.956 39.058,-20.853 64.551,-6.466c25.493,14.387 37.963,40.645 27.829,58.601c21.523,-8.356 52.807,2.264 69.818,23.701c17.01,21.438 13.348,45.627 -8.175,53.984c27.145,3.481 52.406,24.773 56.377,47.517c3.97,22.744 -14.844,38.382 -41.988,34.9c25.493,14.387 37.963,40.646 27.829,58.602c-10.133,17.956 -39.057,20.853 -64.55,6.466c17.011,21.437 13.348,45.627 -8.175,53.983c-21.522,8.357 -52.806,-2.263 -69.817,-23.7c3.971,22.743 -14.843,38.382 -41.988,34.9c-27.144,-3.482 -52.405,-24.773 -56.376,-47.517c-10.134,17.956 -39.058,20.853 -64.551,6.466c-25.493,-14.387 -37.963,-40.645 -27.829,-58.601c-21.523,8.356 -52.807,-2.264 -69.818,-23.701c-17.01,-21.438 -13.348,-45.627 8.175,-53.984c-27.145,-3.481 -52.406,-24.773 -56.377,-47.517c-3.97,-22.744 14.844,-38.382 41.988,-34.9c-25.493,-14.387 -37.963,-40.646 -27.829,-58.602c10.133,-17.956 39.057,-20.853 64.55,-6.466c-17.011,-21.437 -13.348,-45.627 8.175,-53.983c21.522,-8.357 52.806,2.263 69.817,23.7c-3.971,-22.743 14.843,-38.382 41.988,-34.9c27.144,3.482 52.405,24.773 56.376,47.517Z" style="fill:#2e5832;fill-opacity:0.4;"/><g><path d="M1246.14,2853.08c143.353,72.155 199.707,249.998 125.767,396.896c-73.939,146.898 -250.353,207.58 -393.705,135.426c-143.352,-72.155 -199.706,-249.998 -125.767,-396.897c73.94,-146.898 250.353,-207.58 393.705,-135.425Z" style="fill:#9c2c1e;"/><path d="M893.224,2927.14c-15.691,18.324 -29.445,38.829 -40.787,61.363c-73.939,146.899 -17.585,324.742 125.767,396.897c13.189,6.638 26.657,12.152 40.296,16.575c-33.506,-24.439 -69.337,-23.684 -125.983,-110.874c-103.543,-159.373 -1.099,-314.545 -1.099,-314.545l72.844,-23.838l-71.038,-25.578Z" style="fill:#fff;fill-opacity:0.81;"/><path d="M1091.93,3153.35l-29.268,207.03c-0,0 -46.552,4.853 -83.905,-18.56c-42.239,-26.474 -50.947,-58.922 -50.947,-58.922l164.12,-129.548Z" style="fill:#d46557;"/><path d="M1091.93,3128.65l-184.91,97.602c0,0 -31.211,-34.877 -34.129,-78.865c-3.299,-49.741 17.891,-75.811 17.891,-75.811l201.148,57.074Z" style="fill:#d46557;"/><path d="M1091.93,3103.43l-189.829,-87.651c-0,-0 8.759,-45.977 41.937,-75.006c37.517,-32.824 71.098,-31.818 71.098,-31.818l76.794,194.475Z" style="fill:#d46557;"/><path d="M1112.17,3110.98l17.815,-208.328c0,-0 46.213,-7.411 84.801,13.907c43.633,24.107 54.115,56.025 54.115,56.025l-156.731,138.396Z" style="fill:#d46557;"/><path d="M1112.17,3149l153.995,141.434c0,-0 -22.381,41.105 -62.839,58.615c-45.749,19.8 -77.418,8.587 -77.418,8.587l-13.738,-208.636Z" style="fill:#d46557;"/><path d="M1122.67,3130.85l200.51,-59.278c0,0 23.732,40.341 17.93,84.042c-6.561,49.417 -32.469,70.803 -32.469,70.803l-185.971,-95.567Z" style="fill:#d46557;"/><g><path d="M980.133,3265.72c1.712,-3.911 4.888,-6.305 7.087,-5.342c2.2,0.963 2.595,4.92 0.883,8.832c-1.712,3.911 -4.888,6.304 -7.088,5.342c-2.199,-0.963 -2.594,-4.92 -0.882,-8.832Z" style="fill:#fff;"/><path d="M948.863,3283.99c3.67,-8.866 11.964,-13.863 18.509,-11.154c6.544,2.71 8.878,12.108 5.207,20.973c-3.671,8.866 -11.964,13.864 -18.509,11.154c-6.545,-2.71 -8.878,-12.107 -5.207,-20.973Z" style="fill:#fff;"/></g></g><path d="M1238.1,2841.07c173.237,28.301 298.052,148.181 278.553,267.54c-19.499,119.359 -175.975,193.287 -349.212,164.986c-173.236,-28.3 -298.052,-148.181 -278.553,-267.54c19.499,-119.358 175.976,-193.286 349.212,-164.986Z" style="fill:#5f2b24;fill-opacity:0.31;"/><g><path d="M1435.7,1668.83c-73.1,-142.872 -13.585,-319.683 132.822,-394.591c146.407,-74.908 324.618,-19.73 397.718,123.143c73.1,142.873 13.584,319.683 -132.822,394.591c-146.407,74.908 -324.618,19.73 -397.718,-123.143Z" style="fill:#9c2c1e;"/><path d="M1737.44,1517.52l145.854,-149.815c0,0 40.437,23.567 56.763,64.518c18.46,46.306 6.331,77.635 6.331,77.635l-208.948,7.662Z" style="fill:#d46557;"/><path d="M1722.86,1537.46l206.867,30.396c0,0 4.599,46.577 -19.017,83.803c-26.704,42.094 -59.198,50.624 -59.198,50.624l-128.652,-164.823Z" style="fill:#d46557;"/><path d="M1707.97,1557.81l101.463,182.821c0,-0 -34.214,31.936 -78.131,35.777c-49.661,4.342 -76.169,-16.296 -76.169,-16.296l52.837,-202.302Z" style="fill:#d46557;"/><path d="M1696.09,1539.77l-137.377,157.625c-0,0 -41.675,-21.303 -60.232,-61.291c-20.984,-45.219 -10.6,-77.169 -10.6,-77.169l208.209,-19.165Z" style="fill:#d46557;"/><path d="M1718.54,1509.09l-40.787,-205.071c-0,-0 42.333,-19.963 85.325,-10.209c48.614,11.03 67.554,38.777 67.554,38.777l-112.092,176.503Z" style="fill:#d46557;"/><path d="M1699.36,1517.54l-196.83,-70.539c-0,0 4.663,-46.571 35.147,-78.417c34.471,-36.011 68.009,-37.975 68.009,-37.975l93.674,186.931Z" style="fill:#d46557;"/></g><ellipse cx="1726.81" cy="1494.43" rx="161.577" ry="154.272" style="fill:#5f2b24;fill-opacity:0.31;"/><g id="Whale"><path d="M224.87,1906.56c0.452,638.925 601.418,1157.23 1341.19,1156.7c739.769,-0.523 1340,-519.675 1339.55,-1158.6l-2680.73,1.898Z" style="fill:#60b0ff;"/><path d="M293.375,1963.21c0,-0 -11.017,439.526 483.592,830.914" style="fill:none;stroke:#fff;stroke-width:187.5px;"/><path d="M750.258,2731.95l400.422,8.367c-0,0 47.635,166.602 541.886,206.057c426.958,34.083 -733.557,237.084 -942.308,-214.424" style="fill:#add6ff;"/><path d="M830.499,2961.91c0,-0 986.705,112.721 1053.09,-1011.89l982.137,13.189c-0,-0 -190.86,1093.13 -1300.53,1025.79l-734.704,-27.09Z" style="fill:#134e87;fill-opacity:0.5;"/><path d="M2999.29,1810.85l-2868.23,2.032l0.066,93.75c0.486,686.636 639.993,1250.95 1435,1250.38c795.01,-0.563 1433.72,-565.78 1433.23,-1252.42l-0.066,-93.75Zm-2675.85,189.395l2483.73,-1.759c-55.307,546.709 -593.224,970.573 -1241.18,971.032c-647.954,0.458 -1186.47,-422.643 -1242.55,-969.273l0,0Z" style="fill:#2350a0;"/><path d="M603.832,2720.59c267.119,9.677 519.627,11.048 521.472,11.358" style="fill:#60b0ff;stroke:#2350a0;stroke-width:62.5px;stroke-linecap:round;stroke-linejoin:round;"/><rect x="694.157" y="1581.23" width="1287.56" height="323.432" style="fill:#60b0ff;stroke:#2350a0;stroke-width:187.5px;stroke-linecap:round;"/><rect x="1024.33" y="1259.1" width="636.926" height="322.134" style="fill:#60b0ff;stroke:#2350a0;stroke-width:187.5px;stroke-linecap:round;"/><rect x="1344.51" y="940.479" width="316.749" height="318.617" style="fill:#60b0ff;stroke:#2350a0;stroke-width:187.5px;stroke-linecap:round;"/><path d="M1024.27,1565.99l0,338.67" style="fill:none;stroke:#2350a0;stroke-width:187.5px;"/><path d="M1661.26,1533.11l-0,338.67" style="fill:none;stroke:#2350a0;stroke-width:187.5px;"/><path d="M1344.51,1209.77l0,525.557" style="fill:none;stroke:#2350a0;stroke-width:187.5px;"/><circle cx="1291.54" cy="2571.75" r="87.79" style="fill:#fff;"/><path d="M1340.5,2556.56c1.49,4.801 2.292,9.903 2.292,15.19c-0,28.288 -22.967,51.255 -51.255,51.255c-28.289,0 -51.256,-22.967 -51.256,-51.255c0,-28.289 22.967,-51.255 51.256,-51.255c10.113,-0 19.546,2.935 27.495,8.001l-27.495,46.604l48.963,-18.54Z"/></g><path d="M1394.41,3069.61c-15.432,-28.057 5.857,-69.436 47.51,-92.346c41.654,-22.911 88,-18.733 103.432,9.324c7.463,-35.753 49.072,-69.499 92.862,-75.312c43.789,-5.812 73.281,18.496 65.819,54.249c28.357,-33.869 79.139,-50.94 113.33,-38.098c34.191,12.843 38.928,50.768 10.57,84.637c41.654,-22.91 88,-18.732 103.432,9.325c15.432,28.057 -5.857,69.436 -47.51,92.346c43.789,-5.813 73.281,18.495 65.819,54.249c-7.463,35.753 -49.072,69.499 -92.861,75.312c34.191,12.842 38.927,50.767 10.57,84.636c-28.357,33.87 -79.139,50.941 -113.33,38.098c15.432,28.057 -5.857,69.436 -47.51,92.346c-41.654,22.911 -88,18.732 -103.432,-9.324c-7.463,35.753 -49.073,69.499 -92.862,75.311c-43.789,5.813 -73.281,-18.495 -65.819,-54.248c-28.357,33.869 -79.139,50.94 -113.33,38.097c-34.191,-12.842 -38.928,-50.767 -10.57,-84.636c-41.654,22.91 -88,18.732 -103.432,-9.325c-15.432,-28.057 5.857,-69.436 47.51,-92.346c-43.789,5.812 -73.281,-18.496 -65.819,-54.249c7.462,-35.753 49.072,-69.499 92.861,-75.312c-34.191,-12.842 -38.927,-50.767 -10.57,-84.636c28.357,-33.87 79.138,-50.941 113.33,-38.098Z" style="fill:#307c37;"/><path d="M1786.79,915.875c24.324,-14.114 39.211,-22.576 39.211,-22.576c0,0 1047.83,312.581 1161.1,362.126c113.271,49.546 548.019,143.899 683.585,128.528c135.565,-15.37 317.885,156.493 380.623,288.07c62.738,131.578 141.242,479.622 50.691,745.748c-90.552,266.126 -221.201,269.327 -302.593,310.818c-81.391,41.491 -2194.98,710.699 -2266.04,761.846c-11.554,8.317 -30.14,-0.18 -53.182,-20.259c372.398,-147.184 691.699,-576.415 790.779,-1124.3c113.328,-626.675 -97.576,-1208.85 -484.178,-1430Z" style="fill:#ffe9bc;"/><path d="M2133.33,2835.66l1374.55,-304.617c-0,0 646.874,-93.733 391.058,-1030.43l204.728,223.264l39.392,480.973l-123.511,418.887c-0,-0 -1252.01,503.11 -1582.75,596.23c-330.744,93.119 -715.818,154.565 -715.818,154.565l412.35,-538.867Z" style="fill:#d0b083;"/><path d="M2222.55,1264.75c0,-0 326.411,384.174 332.556,826.592c3.511,252.808 -62.77,689.604 -305.151,990.607c-117.081,145.398 -374.802,278.769 -623.349,292.572c-0,-0 645.915,-610.618 649.334,-988.231c3.419,-377.613 -53.39,-1121.54 -53.39,-1121.54Z" style="fill:#d0b083;"/><path d="M2090.92,1357.61c0,0 1543.57,392.763 1881.6,140.642c0,0 -86.117,-66.46 -213.142,-100.195c-127.025,-33.736 -991.282,-208.524 -1140.42,-275.941c-149.141,-67.416 -777.312,-270.466 -778.689,-228.821l250.656,464.315Z" style="fill:#fff;"/><path d="M1577.45,3561.13c5.456,-2.117 116.122,-44.948 238.078,-86.751c583.274,-199.933 1956.25,-638.168 2021.72,-671.545c93.138,-47.479 240.016,-53.682 343.636,-358.218c98.161,-288.49 13.648,-665.822 -54.362,-808.457c-43.003,-90.188 -134.68,-197.396 -234.998,-264.578c-76.808,-51.438 -159.088,-78.495 -230.234,-70.429c-127.138,14.415 -534.57,-75.607 -640.8,-122.074c-114.22,-49.96 -1170.68,-365.632 -1170.68,-365.632c-21.77,-6.495 -0.287,19.072 -20.038,30.298c-0,-0 11.005,1.117 -13.72,15.463c-25.774,14.956 12.418,24.913 12.51,54.712c0.092,29.799 -14.347,71.931 11.52,86.727c362.135,207.154 455.025,743.387 348.87,1330.4c-93.256,515.681 -388.9,923.1 -739.407,1061.63c-27.052,10.692 -46.572,34.717 -51.499,63.386c-4.926,28.668 5.452,57.831 27.383,76.941c61.283,53.401 118.901,48.817 152.014,28.125Zm-90.639,-139.647l-2.128,1.32c0.651,-0.47 1.36,-0.913 2.128,-1.32Zm589.058,-2366.23c316.202,95.328 802.956,243.774 877.832,276.525c120.313,52.627 582.376,151.308 726.369,134.982c37.341,-4.234 78.403,16.306 118.717,43.304c75.308,50.434 145.015,130.125 177.298,197.829c57.466,120.521 129.961,439.276 47.019,683.039c-77.489,227.736 -191.898,227.912 -261.548,263.418c-59.527,30.345 -1212.38,397.568 -1846.29,610.297c209.664,-221.545 371.329,-536.907 437.703,-903.94c93.501,-517.034 -26.552,-1003.53 -277.096,-1305.45Z" style="fill:#8d6c3e;"/><path d="M2377.96,3185.53c-0,0 357.507,-96.714 452.308,-689.578c0,0 -43.797,467.355 -120.024,536.097l-332.284,153.481Z" style="fill:#8d6c3e;"/><path d="M3466.7,2805.92c-0,-0 156.837,-123.659 172.854,-273.165c-0,-0 7.45,179.57 -17.893,230.306l-154.961,42.859Z" style="fill:#8d6c3e;"/><path d="M3320.87,1365.98c-0,0 139.694,221.123 373.799,269.252" style="fill:#8d6c3e;"/><path d="M2932.02,1575.9c-0,0 208.341,299.268 174.037,617.554" style="fill:#8d6c3e;"/><path d="M3171.82,2083.99c-0,-0 55.976,70.331 2.897,218.92" style="fill:#8d6c3e;"/><path d="M3789.02,2161.07c0,0 88.701,155.679 24.643,261.224" style="fill:#8d6c3e;"/><path d="M2300.82,2301.7c-19.151,-16.81 -31.126,-44.013 -30.084,-74.27c-22.496,41.91 -47.037,73.419 -82.609,47.549c-35.573,-25.87 -35.232,-161.454 -54.791,-204.813c-19.558,-43.36 -85.96,-66.121 -58.21,-115.736c-42.055,-1.449 -78.993,-20.464 -77.296,-69.694c1.696,-49.23 37.216,-88.023 79.272,-86.574c-35.573,-25.87 -46.189,-80.899 -23.693,-122.809c22.497,-41.91 69.642,-54.933 105.214,-29.063c-19.558,-43.359 -5.18,-97.527 32.089,-120.887c16.529,-10.36 34.802,-12.932 51.724,-8.804c37.235,184.243 94.35,531.19 58.384,785.101Z" style="fill:#45ae4e;"/><path d="M2186.08,1908.21c-6.168,0.056 -71.691,2.339 -76.059,40.978" style="fill:#458e4b;"/><path d="M2192.2,1911.14c-0,-0 -45.566,-106.044 -113.499,-27.972c-0,-0 35.875,-16.186 65.783,11.996c29.908,28.183 47.716,15.976 47.716,15.976Z" style="fill:#458e4b;"/><path d="M2187.8,1593.43c-4.574,-46.556 3.533,-85.515 18.093,-86.945c14.559,-1.43 30.093,35.206 34.666,81.762c3.319,-41.034 18.107,-56.455 33.002,-34.416c14.896,22.04 24.295,73.247 20.976,114.281c10.322,-24.517 27.828,-12.268 39.068,27.335c11.241,39.604 11.987,91.661 1.665,116.178c14.559,-1.431 30.093,35.206 34.666,81.762c4.574,46.556 -3.533,85.514 -18.092,86.945c14.895,22.039 24.294,73.246 20.975,114.28c-3.318,41.034 -18.106,56.455 -33.002,34.416c11.241,39.603 11.987,91.661 1.665,116.177c-10.322,24.517 -27.828,12.268 -39.069,-27.335c4.574,46.556 -3.533,85.514 -18.093,86.945c-14.559,1.43 -30.092,-35.206 -34.666,-81.762c-3.319,41.034 -18.107,56.455 -33.002,34.415c-14.896,-22.039 -24.295,-73.246 -20.976,-114.28c-10.322,24.517 -27.828,12.268 -39.068,-27.335c-11.241,-39.604 -11.987,-91.661 -1.665,-116.178c-14.559,1.43 -30.093,-35.206 -34.666,-81.762c-4.574,-46.556 3.533,-85.515 18.092,-86.945c-14.895,-22.039 -24.294,-73.247 -20.975,-114.28c3.319,-41.034 18.106,-56.455 33.002,-34.416c-11.241,-39.603 -11.987,-91.661 -1.665,-116.177c10.322,-24.517 27.828,-12.269 39.069,27.335Z" style="fill:#2c7c32;fill-opacity:0.32;"/><path d="M1753.22,749.01c173.052,70.844 321.581,198.914 435.817,369.279c208.993,311.678 302.43,769.217 215.181,1251.68c-87.249,482.466 -335.011,878.301 -639.925,1097.05c-203.776,146.187 -433.423,215.199 -662.675,187.732c48.016,-58.359 95.052,-121.851 140.695,-189.998c18.014,-26.895 35.81,-54.514 53.363,-82.829c108.012,-17.772 213.26,-65.032 310.745,-134.967c256.137,-183.751 457.995,-519.894 531.287,-925.179c73.292,-405.285 1.945,-790.834 -173.615,-1052.65c-38.678,-57.683 -82.454,-109.16 -130.893,-152.861c-8.25,-69.725 -54.996,-115.1 -68.966,-178.23c-13.084,-59.132 6.954,-136.451 -11.014,-189.022Z" style="fill:#553d1c;"/><path d="M1755.03,1166.03c7.891,1.843 13.04,-1.795 9.656,-24.495c-8.494,-56.978 23.197,-0.969 13.127,-36.024c-6.112,-21.279 -20.897,-92.971 -3.846,-129.031c17.051,-36.059 69.034,-100.177 106.15,-87.329c37.423,12.953 50.384,73.801 28.926,135.794c37.295,-47.211 85.175,-51.267 106.855,-9.053c21.68,42.215 9.003,114.818 -28.292,162.029c43.138,-19.779 78.265,13.01 78.393,73.175c0.128,60.164 -34.791,125.069 -77.929,144.847c31.169,10.789 48.614,41.308 40.088,91.545l-33.286,-0.034c-1.684,-12.809 -4.317,-25.017 -7.755,-36.635c-5.053,-18.158 -11.985,-36.048 -20.881,-53.436c-42.946,-83.938 -122.172,-137.607 -209.921,-152.412c-0.58,-0.173 -0.881,-0.258 -0.881,-0.258c-0,-0 -0.141,-0.154 -0.404,-0.448l0,-78.235Z" style="fill:#307c37;"/><path d="M1809.54,1259.11c13.511,-6.508 31.265,-14.411 50.261,-21.122c40.581,-14.336 86.83,-23.234 109.499,-1.478l-145.951,28.08c-4.553,-1.942 -9.156,-3.768 -13.809,-5.48Z" style="fill:#2a6b30;"/><path d="M1788.15,1252.15l122.366,-149.286c-17.439,81.75 -52.119,124.059 -82.439,145.93c-6.015,4.34 -11.859,7.874 -17.361,10.752c-7.416,-2.765 -14.948,-5.234 -22.566,-7.396Z" style="fill:#2a6b30;"/><path d="M1755.16,1208.56c5.335,4.836 9.673,10.953 12.541,18.165c4.171,-28.635 38.429,-104.683 66.532,-101.771c28.103,2.912 50.744,62.561 46.573,91.196c17.664,-23.342 42.539,-33.827 64.792,-16.987c22.252,16.839 22.244,75.794 4.58,99.137c26.423,-11.796 39.199,4.575 49.638,30.83c10.44,26.254 -1.897,56.367 -28.321,68.163c28.104,2.912 36.844,49.673 39.466,76.788c1.328,13.733 -4.9,21.27 -14.826,25.082c-3.388,-34.624 -13.171,-69.09 -29.896,-101.779c-43.136,-84.309 -122.873,-138.081 -211.079,-152.604l0,-36.22Z" style="fill:#2f6e35;fill-opacity:0.55;"/><path d="M1263.4,3319.08c41.148,-15.971 84.84,-2.442 97.507,30.193c12.667,32.636 -10.455,72.099 -51.604,88.07c-41.148,15.972 -84.84,2.443 -97.507,-30.193c-12.667,-32.635 10.455,-72.098 51.604,-88.07Z" style="fill:#307c37;"/><path d="M1360.55,3318.17c29.033,-11.269 58.355,-5.603 65.438,12.646c7.084,18.249 -10.737,42.214 -39.77,53.483c-29.033,11.269 -58.355,5.602 -65.438,-12.647c-7.083,-18.248 10.737,-42.213 39.77,-53.482Z" style="fill:#307c37;"/><path d="M1353.94,3281.11c0,0 2.444,53.058 -67.583,87.498" style="fill:#2a6b30;"/><path d="M1355.23,3274.8c-0,0 26.194,46.206 -20.661,108.611" style="fill:#2a6b30;"/><path d="M1304.1,3243.72c0,-0 -30.445,-6.924 -62.428,26.874" style="fill:#2a6b30;"/><path d="M1313.83,3319.16c-17.668,10.974 -37.229,11.484 -43.656,1.138c-6.426,-10.345 2.701,-27.655 20.369,-38.629c-18.514,4.331 -30.891,-3.881 -27.623,-18.328c3.269,-14.447 20.953,-29.693 39.467,-34.024c-14.399,-3.472 -16.276,-18.207 -4.188,-32.884c12.088,-14.677 33.592,-23.774 47.991,-20.301c-6.426,-10.346 2.7,-27.655 20.368,-38.63c17.668,-10.974 37.229,-11.484 43.656,-1.138c3.268,-14.447 20.953,-29.693 39.467,-34.024c18.514,-4.331 30.891,3.882 27.622,18.329c12.088,-14.677 33.592,-23.774 47.991,-20.301c14.399,3.472 16.276,18.207 4.188,32.884c17.668,-10.974 37.23,-11.484 43.656,-1.139c6.426,10.346 -2.701,27.655 -20.368,38.63c18.514,-4.331 30.891,3.881 27.622,18.328c-3.268,14.447 -20.953,29.692 -39.467,34.024c14.399,3.472 16.276,18.207 4.188,32.884c-12.087,14.677 -33.591,23.774 -47.991,20.301c6.427,10.346 -2.7,27.655 -20.368,38.63c-17.668,10.974 -37.229,11.484 -43.655,1.138c-3.269,14.447 -20.953,29.693 -39.467,34.024c-18.514,4.331 -30.892,-3.882 -27.623,-18.329c-12.088,14.677 -33.592,23.774 -47.991,20.301c-14.399,-3.472 -16.276,-18.207 -4.188,-32.884Z" style="fill:#2f6e35;fill-opacity:0.66;"/><path d="M1517.85,2967.21c-10.742,-19.528 13.498,-32.558 39.279,-47.644c35.759,-20.925 65.281,-22.702 102.09,-30.23c36.81,-7.528 118.842,-21.72 109.993,5.176c26.069,-27.056 130.734,-38.169 158.188,-31.24c27.453,6.928 -27.64,51.427 -16.899,70.955c10.742,19.529 -5.386,55.483 -41.689,75.45c36.81,-7.527 59.51,8.197 50.661,35.093c-8.849,26.896 -45.919,54.844 -82.728,62.372c27.453,6.929 28.578,34.521 2.509,61.577c-26.068,27.057 -69.521,43.398 -96.975,36.469c10.741,19.529 -10.011,51.595 -46.314,71.562c-36.303,19.968 -74.497,20.324 -85.238,0.795c-8.849,26.896 -45.919,54.844 -82.728,62.371c-36.81,7.528 -59.511,-8.196 -50.661,-35.092c-26.069,27.056 -69.522,43.397 -96.976,36.469c-27.453,-6.929 -28.578,-34.521 -2.509,-61.578c-36.303,19.968 -74.497,20.324 -85.238,0.795c-10.741,-19.529 10.011,-51.595 46.314,-71.562c-36.81,7.528 -59.51,-8.197 -50.661,-35.093c8.849,-26.896 45.919,-54.844 82.728,-62.372c-27.453,-6.929 -18.226,-48.459 7.244,-76.079c22.093,-23.958 112.156,-75.122 139.61,-68.194Z" style="fill:#45ae4e;"/><path d="M1396.72,3219.84c-0,0 43.928,65.912 79.98,43.241" style="fill:#458e4b;"/><path d="M1623.72,3209.25c0,-0 48.331,18.389 72.497,-24.629" style="fill:#458e4b;"/><path d="M1520.55,2987.73c-0,0 -42.259,130.971 22.766,204.811" style="fill:#458e4b;"/><path d="M1520.55,2987.73c-0,0 -59.838,31.273 -62.009,114.344" style="fill:#458e4b;"/><path d="M1762.73,2910.42c-0,-0 -24.942,35.575 20.855,91.323" style="fill:#458e4b;"/><path d="M1753.16,2910.42c0,-0 -109.159,132.505 -62.354,154.621" style="fill:#458e4b;"/><path d="M1430.23,2998.36c33.068,-18.948 71.344,-35.255 87.619,-31.148c-10.742,-19.528 13.498,-32.558 39.279,-47.644c35.759,-20.925 65.281,-22.702 102.09,-30.23c36.81,-7.528 118.842,-21.72 109.993,5.176c26.069,-27.056 130.734,-38.169 158.188,-31.24c27.453,6.928 -27.64,51.427 -16.899,70.955c8.467,15.393 0.24,40.99 -21.404,60.922c-3.785,-1.764 -7.265,-3.667 -10.396,-5.706c0.526,26.032 -52.867,48.255 -119.157,49.594c-66.29,1.339 -120.536,-18.708 -121.062,-44.741c-32.69,23.215 -106.052,32.436 -163.724,20.58c-19.159,-3.939 -34.191,-9.711 -44.527,-16.518Z" style="fill:#2c7c32;fill-opacity:0.33;"/><path d="M366.634,3008.84c0,0 94.952,-46.36 161.233,-14.744" style="fill:#2a6b30;"/><path d="M376.591,3060.35c0,0 74.326,-75.105 147.328,-67.141" style="fill:#2a6b30;"/><path d="M376.591,2821.28c0,-0 24.502,51.368 85.096,53.279" style="fill:#2a6b30;"/><path d="M419.843,2884.74c-0,0 76.569,20.797 83.688,2.291" style="fill:#2a6b30;"/><path d="M549.39,3253.61c-0,0 77.72,58.061 153.796,5.433c76.076,-52.629 -30.671,-11.383 -37.068,-5.388" style="fill:#2a6b30;"/></g></svg>